<?xml version="1.0" standalone="no"?><!DOCTYPE svg PUBLIC "-//W3C//DTD SVG 1.1//EN" "http://www.w3.org/Graphics/SVG/1.1/DTD/svg11.dtd"><svg class="icon" width="200px" height="200.00px" viewBox="0 0 1024 1024" version="1.1" xmlns="http://www.w3.org/2000/svg"><path fill="#333333" d="M848.3 245.3c-5.3 0-9.6-4.3-9.6-9.6v-83.1h-653v83.1c0 5.3-4.3 9.6-9.6 9.6s-9.6-4.3-9.6-9.6V143c0-5.3 4.3-9.6 9.6-9.6h672.2c5.3 0 9.6 4.3 9.6 9.6v92.7c0 5.3-4.3 9.6-9.6 9.6zM330.9 653.8H176.2c-5.3 0-9.6-4.3-9.6-9.6V367.6c0-5.3 4.3-9.6 9.6-9.6s9.6 4.3 9.6 9.6v267h145.1c5.3 0 9.6 4.3 9.6 9.6s-4.4 9.6-9.6 9.6zM848.3 653.8H685.9c-5.3 0-9.6-4.3-9.6-9.6s4.3-9.6 9.6-9.6h152.9v-267c0-5.3 4.3-9.6 9.6-9.6s9.6 4.3 9.6 9.6v276.6c-0.1 5.3-4.4 9.6-9.7 9.6z"  /><path fill="#333333" d="M364.6 595.3H225.9c-1.3 0-2.5-0.5-3.4-1.4-0.9-0.9-1.4-2.1-1.4-3.4V326c0-2.6 2.1-4.8 4.8-4.8 2.6 0 4.8 2.1 4.8 4.8v259.8h133.9c2.6 0 4.8 2.1 4.8 4.8 0 2.6-2.2 4.7-4.8 4.7zM798.6 595.3H668c-2.6 0-4.8-2.1-4.8-4.8 0-2.6 2.1-4.8 4.8-4.8h125.9V326.6c0-2.6 2.1-4.8 4.8-4.8s4.8 2.1 4.8 4.8v263.9c-0.1 2.7-2.2 4.8-4.9 4.8zM950.8 823.8h-877c-3.5 0-6.6-1.9-8.3-4.9-1.7-3-1.6-6.7 0.1-9.7l102.4-170c1.7-2.9 4.8-4.6 8.2-4.6h154.7c5.3 0 9.6 4.3 9.6 9.6s-4.3 9.6-9.6 9.6H181.6L90.7 804.7h843.1l-90.9-150.9h-157c-5.3 0-9.6-4.3-9.6-9.6s4.3-9.6 9.6-9.6h162.5c3.4 0 6.5 1.8 8.2 4.6l102.4 170c1.8 3 1.8 6.7 0.1 9.7-1.7 3.1-4.9 4.9-8.3 4.9z"  /><path fill="#333333" d="M91.7 787.4l-17.9 26.9h270.7l-2.3-26.9zM935.1 787.4l17.9 26.9H682.3l2.2-26.9zM436.2 313.6c-1.3 0-2.6-0.5-3.5-1.5-0.9-0.9-1.4-2.2-1.4-3.5v-0.4c0.2-2.5 2.3-4.4 4.8-4.4s4.5 1.9 4.8 4.4v0.5c0 1.3-0.5 2.5-1.4 3.5-0.7 0.9-2 1.4-3.3 1.4zM579.4 313.7c-2.6 0-4.8-2.1-4.8-4.8v-0.6c0.2-2.5 2.3-4.4 4.8-4.4s4.6 1.9 4.8 4.4v0.6c0 2.6-2.1 4.8-4.8 4.8zM221.4 313.5c-2.6 0-4.8-2.1-4.8-4.8v-0.5c0.2-2.4 2.3-4.3 4.8-4.3s4.6 1.9 4.8 4.4v0.4c0 2.6-2.1 4.8-4.8 4.8zM364.6 313.6c-2.6 0-4.8-2.1-4.8-4.8v-0.5c0.2-2.5 2.3-4.4 4.8-4.4s4.5 1.9 4.8 4.3v0.6c0 2.6-2.1 4.8-4.8 4.8zM507.8 313.6c-1.3 0-2.5-0.5-3.4-1.4-0.9-0.9-1.4-2.2-1.4-3.5v-0.5c0.2-2.5 2.3-4.4 4.8-4.4s4.6 1.9 4.8 4.4v0.6c0 2.7-2.1 4.8-4.8 4.8zM651 313.7c-1.3 0-2.5-0.5-3.4-1.4-0.9-0.9-1.4-2.2-1.4-3.4v-0.6c0.2-2.5 2.3-4.4 4.8-4.4s4.6 2 4.8 4.4v0.6c0 1.3-0.5 2.5-1.4 3.4-0.9 0.9-2.1 1.4-3.4 1.4zM293 313.5c-2.6 0-4.8-2.1-4.8-4.8v-0.6c0.2-2.4 2.3-4.3 4.8-4.3s4.5 1.9 4.8 4.3v0.6c0 2.7-2.1 4.8-4.8 4.8zM794.2 313.8c-1.3 0-2.5-0.5-3.4-1.4-0.9-0.9-1.4-2.1-1.4-3.4 0-0.2 0-0.5 0.1-0.7 0.2-2.5 2.3-4.4 4.8-4.4s4.6 1.9 4.8 4.4c0 0.2 0 0.5 0.1 0.7 0 1.3-0.5 2.5-1.4 3.4-1.1 0.9-2.3 1.4-3.6 1.4z m4.8-5.2z m-9.6 0z m0 0z m9.6 0z m-9.6 0z m0 0z m9.6 0zM722.6 313.8c-2.6 0-4.9-2.1-4.9-4.8v-0.7c0.2-2.5 2.3-4.4 4.8-4.4s4.6 1.9 4.8 4.4c0 0.2 0 0.4 0.1 0.7 0 1.3-0.5 2.5-1.4 3.4-0.9 0.9-2.1 1.4-3.4 1.4z m-4.8-5.2z m0 0z m0 0z m0 0z"  /><path fill="#333333" d="M185.6 349.2c-22.4 0-40.6-18.2-40.6-40.6 0-1.3 0.5-2.5 1.4-3.4 0.9-0.9 2.1-1.4 3.4-1.4h71.6c1.3 0 2.5 0.5 3.4 1.4 0.9 0.9 1.4 2.1 1.4 3.4 0 22.4-18.2 40.6-40.6 40.6zM155 313.4c2.3 14.8 15.2 26.2 30.6 26.2 15.4 0 28.3-11.4 30.6-26.2H155z"  /><path fill="#333333" d="M257.2 349.2c-22.4 0-40.6-18.2-40.6-40.5 0-1.3 0.5-2.5 1.4-3.4 0.9-0.9 2.1-1.4 3.4-1.4H293c1.3 0 2.5 0.5 3.4 1.4 0.9 0.9 1.4 2.1 1.4 3.4-0.1 22.4-18.3 40.5-40.6 40.5z m-30.6-35.7c2.3 14.8 15.2 26.2 30.6 26.2 15.4 0 28.3-11.3 30.6-26.1l-61.2-0.1z"  /><path fill="#333333" d="M328.8 349.2c-22.3 0-40.5-18.2-40.6-40.5 0-1.3 0.5-2.5 1.4-3.4 0.9-0.9 2.1-1.4 3.4-1.4h71.6c1.3 0 2.5 0.5 3.4 1.4 0.9 0.9 1.4 2.1 1.4 3.4-0.1 22.4-18.3 40.5-40.6 40.5z m-30.6-35.7c2.4 14.8 15.2 26.1 30.6 26.1 15.4 0 28.2-11.3 30.6-26.1h-61.2z"  /><path fill="#333333" d="M400.4 349.2c-22.3 0-40.5-18.1-40.6-40.4 0-1.3 0.5-2.5 1.4-3.4 0.9-0.9 2.1-1.4 3.4-1.4h71.6c1.3 0 2.5 0.5 3.4 1.4 0.9 0.9 1.4 2.1 1.4 3.4-0.1 22.3-18.3 40.4-40.6 40.4z m-30.6-35.6c2.4 14.8 15.2 26.1 30.6 26.1 15.4 0 28.2-11.3 30.6-26l-61.2-0.1z"  /><path fill="#333333" d="M472 349.2c-22.3 0-40.5-18.1-40.6-40.4 0-1.3 0.5-2.5 1.4-3.4 0.9-0.9 2.1-1.4 3.4-1.4h71.6c1.3 0 2.5 0.5 3.4 1.4 0.9 0.9 1.4 2.1 1.4 3.4-0.2 22.3-18.4 40.4-40.6 40.4z m-30.6-35.6c2.4 14.7 15.2 26 30.6 26 15.3 0 28.2-11.3 30.6-26h-61.2z"  /><path fill="#333333" d="M543.6 349.2c-22.2 0-40.4-18.1-40.6-40.3 0-1.3 0.5-2.5 1.4-3.4 0.9-0.9 2.1-1.4 3.4-1.4h71.5c1.3 0 2.5 0.5 3.4 1.4 0.9 0.9 1.4 2.1 1.4 3.4-0.1 22.3-18.3 40.3-40.5 40.3zM513 313.7c2.4 14.7 15.2 26 30.6 26 15.3 0 28.1-11.3 30.6-26H513z"  /><path fill="#333333" d="M615.2 349.2c-22.2 0-40.4-18.1-40.6-40.3 0-1.3 0.5-2.5 1.4-3.4 0.9-0.9 2.1-1.4 3.4-1.4h71.5c1.3 0 2.5 0.5 3.4 1.4 0.9 0.9 1.4 2.1 1.4 3.4-0.1 22.3-18.3 40.3-40.5 40.3z m-30.6-35.5c2.4 14.7 15.2 26 30.6 26 15.3 0 28.1-11.2 30.6-25.9l-61.2-0.1z"  /><path fill="#333333" d="M686.8 349.2c-22.2 0-40.4-18.1-40.6-40.2 0-1.3 0.5-2.5 1.4-3.4 0.9-0.9 2.1-1.4 3.4-1.4h71.5c1.3 0 2.5 0.5 3.4 1.4 0.9 0.9 1.4 2.1 1.4 3.4-0.2 22.2-18.4 40.2-40.5 40.2z m-30.6-35.5c2.4 14.7 15.3 25.9 30.6 25.9s28.1-11.2 30.5-25.9h-61.1z"  /><path fill="#333333" d="M758.4 349.2c-22.1 0-40.3-18-40.6-40.2 0-1.3 0.5-2.5 1.4-3.4 0.9-0.9 2.1-1.4 3.4-1.4h71.5c1.3 0 2.5 0.5 3.4 1.4 0.9 0.9 1.4 2.1 1.4 3.4-0.2 22.2-18.4 40.2-40.5 40.2z m-30.6-35.4c2.5 14.6 15.3 25.9 30.5 25.9s28-11.2 30.5-25.8l-61-0.1z"  /><path fill="#333333" d="M830 349.2c-22.1 0-40.3-18-40.5-40.2 0-1.3 0.5-2.5 1.4-3.4 0.9-0.9 2.1-1.4 3.4-1.4h71.5c1.3 0 2.5 0.5 3.4 1.4 0.9 0.9 1.4 2.1 1.4 3.4-0.4 22.2-18.6 40.2-40.6 40.2z m-30.6-35.4c2.5 14.6 15.3 25.8 30.5 25.8s28-11.2 30.5-25.8h-61zM221.4 313.2h-71.6c-1.8 0-3.4-1-4.3-2.6-0.8-1.6-0.7-3.5 0.3-5L222 198.2c0.9-1.3 2.4-2 3.9-2h56.4c1.7 0 3.3 0.9 4.1 2.4 0.9 1.5 0.9 3.3 0 4.8l-60.9 107.4c-0.7 1.4-2.3 2.4-4.1 2.4z m-62.3-9.6h59.5l55.4-97.8h-45.7l-69.2 97.8z"  /><path fill="#333333" d="M293 313.2h-71.6c-1.7 0-3.3-0.9-4.1-2.4-0.9-1.5-0.9-3.3 0-4.8l60.9-107.4c0.9-1.5 2.4-2.4 4.2-2.4h56.4c1.6 0 3.1 0.8 4 2.1 0.9 1.3 1 3 0.4 4.5l-45.7 107.4c-0.8 1.8-2.5 3-4.5 3z m-63.3-9.6h60.2l41.6-97.8h-46.3l-55.5 97.8z"  /><path fill="#333333" d="M364.6 313.2H293c-1.6 0-3.1-0.8-4-2.1-0.9-1.3-1-3-0.4-4.5l45.7-107.4c0.8-1.8 2.5-2.9 4.4-2.9h56.4c1.5 0 2.9 0.7 3.8 1.9 0.9 1.2 1.2 2.8 0.8 4.2l-30.4 107.4c-0.6 1.9-2.5 3.4-4.7 3.4z m-64.3-9.6H361l27.7-97.8h-46.9l-41.5 97.8z"  /><path fill="#333333" d="M436.2 313.2h-71.6c-1.5 0-2.9-0.7-3.8-1.9-0.9-1.2-1.2-2.8-0.8-4.2l30.4-107.4a4.8 4.8 0 0 1 4.6-3.5h56.4c1.4 0 2.7 0.6 3.6 1.7 0.9 1 1.3 2.4 1.1 3.8L441 309c-0.4 2.4-2.4 4.2-4.8 4.2z m-65.2-9.6h61.1l13.9-97.8h-47.2L371 303.6z"  /><path fill="#333333" d="M507.8 313.2h-71.6c-1.4 0-2.7-0.6-3.6-1.7-0.9-1-1.3-2.4-1.1-3.8l15.2-107.4c0.3-2.4 2.4-4.1 4.7-4.1h56.4c2.6 0 4.8 2.1 4.8 4.8v107.4c0 2.6-2.1 4.8-4.8 4.8z m-66.1-9.6H503v-97.8h-47.4l-13.9 97.8z"  /><path fill="#333333" d="M579.4 313.2h-71.6c-2.6 0-4.8-2.1-4.8-4.8V201c0-2.6 2.1-4.8 4.8-4.8h56.4c2.4 0 4.4 1.8 4.7 4.1l15.2 107.4c0.2 1.4-0.2 2.8-1.1 3.8a4.6 4.6 0 0 1-3.6 1.7z m-66.8-9.6h61.3L560 205.8h-47.4v97.8z"  /><path fill="#333333" d="M651 313.2h-71.6c-2.4 0-4.4-1.8-4.7-4.1l-15.2-107.4c-0.2-1.4 0.2-2.8 1.1-3.8 0.9-1 2.2-1.7 3.6-1.7h56.4c2.1 0 4 1.4 4.6 3.5l30.4 107.4c0.4 1.4 0.1 3-0.8 4.2-0.9 1.1-2.3 1.9-3.8 1.9z m-67.4-9.6h61.1L617 205.8h-47.2l13.8 97.8z"  /><path fill="#333333" d="M722.6 313.2H651c-2.1 0-4-1.4-4.6-3.5L616 202.3c-0.4-1.4-0.1-3 0.8-4.2 0.9-1.2 2.3-1.9 3.8-1.9H677c1.9 0 3.7 1.1 4.4 2.9L727 306.5c0.6 1.5 0.5 3.2-0.4 4.5-0.9 1.3-2.4 2.2-4 2.2z m-68-9.6h60.7l-41.6-97.8h-46.9l27.8 97.8z"  /><path fill="#333333" d="M794.2 313.2h-71.6c-1.9 0-3.7-1.1-4.4-2.9l-45.7-107.4c-0.6-1.5-0.5-3.2 0.4-4.5 0.9-1.3 2.4-2.1 4-2.1h56.4c1.7 0 3.3 0.9 4.2 2.4L798.4 306c0.8 1.5 0.8 3.3 0 4.8-0.9 1.4-2.5 2.4-4.2 2.4z m-68.4-9.6H786l-55.4-97.8h-46.3l41.5 97.8z"  /><path fill="#333333" d="M865.8 313.2h-71.6c-1.7 0-3.3-0.9-4.2-2.4l-60.9-107.4a5.1 5.1 0 0 1 0-4.8c0.9-1.5 2.4-2.4 4.1-2.4h65.3c1.7 0 3.2 0.9 4.1 2.3l67.1 107.4c0.9 1.5 1 3.3 0.1 4.9-0.7 1.4-2.3 2.4-4 2.4z m-68.8-9.6h60.2L796 205.8h-54.4l55.4 97.8zM950.8 868.6h-877c-5.3 0-9.6-4.3-9.6-9.6v-44.7c0-5.3 4.3-9.6 9.6-9.6h877c5.3 0 9.6 4.3 9.6 9.6V859c0 5.3-4.3 9.6-9.6 9.6zM83.3 849.4h857.8v-25.6H83.3v25.6zM387 616.3c-4.9 0-9-3.7-9.5-8.7-0.5-5.3 3.3-10 8.6-10.5l243-23.5c5.7-0.6 10.3-4.7 11.5-10.3l17.5-81.7c0.8-3.9-0.1-7.9-2.6-11-2.5-3.1-6.2-4.9-10.2-4.9H381.4c-5.3 0-9.6-4.3-9.6-9.6s4.3-9.6 9.6-9.6h263.9c9.8 0 18.9 4.4 25.1 12 6.2 7.6 8.5 17.5 6.5 27l-17.5 81.7c-3 13.8-14.4 24-28.4 25.3L388 616c-0.4 0.3-0.7 0.3-1 0.3z"  /><path fill="#333333" d="M637.6 671.7H413.8c-20.1 0-36.4-16.3-36.4-36.4V483.1c0-52.5-59.5-53.1-62-53.1-5.3 0-9.6-4.3-9.6-9.6s4.3-9.6 9.6-9.6c28.1 0 81.2 15.1 81.2 72.2v152.1c0 9.5 7.7 17.3 17.3 17.3h223.7c5.3 0 9.6 4.3 9.6 9.6-0.1 5.4-4.4 9.7-9.6 9.7zM431.7 747.5c-17.4 0-31.6-14.2-31.6-31.6 0-17.4 14.2-31.6 31.6-31.6 17.4 0 31.6 14.2 31.6 31.6 0.1 17.4-14.1 31.6-31.6 31.6z m0-53.7c-12.2 0-22.1 9.9-22.1 22.1s9.9 22.1 22.1 22.1c12.2 0 22.1-9.9 22.1-22.1s-9.9-22.1-22.1-22.1zM597.3 751.9c-17.4 0-31.6-14.2-31.6-31.6 0-17.4 14.2-31.6 31.6-31.6 17.4 0 31.6 14.2 31.6 31.6 0 17.4-14.2 31.6-31.6 31.6z m0-53.7c-12.2 0-22.1 9.9-22.1 22.1 0 12.2 9.9 22.1 22.1 22.1 12.2 0 22.1-9.9 22.1-22.1-0.1-12.2-10-22.1-22.1-22.1z"  /></svg>