<?xml version="1.0" standalone="no"?><!DOCTYPE svg PUBLIC "-//W3C//DTD SVG 1.1//EN" "http://www.w3.org/Graphics/SVG/1.1/DTD/svg11.dtd"><svg class="icon" width="200px" height="162.54px" viewBox="0 0 1260 1024" version="1.1" xmlns="http://www.w3.org/2000/svg"><path fill="#333333" d="M315.076923 472.615385H0V157.538462h315.076923z m-236.307692-78.769231h157.538461V236.307692H78.769231zM787.692308 472.615385h-315.076923V157.538462h315.076923z m-236.307693-78.769231h157.538462V236.307692h-157.538462zM1260.307692 472.615385h-315.076923V157.538462h315.076923z m-236.307692-78.769231h157.538462V236.307692h-157.538462zM0 0h1260.307692v78.769231H0zM315.076923 1024H0v-315.076923h315.076923z m-236.307692-78.769231h157.538461v-157.538461H78.769231zM787.692308 1024h-315.076923v-315.076923h315.076923z m-236.307693-78.769231h157.538462v-157.538461h-157.538462zM1260.307692 1024h-315.076923v-315.076923h315.076923z m-236.307692-78.769231h157.538462v-157.538461h-157.538462zM0 551.384615h1260.307692v78.769231H0z"  /></svg>